<svg id="Layer_1" height="512" viewBox="0 0 75 75" width="512" xmlns="http://www.w3.org/2000/svg" data-name="Layer 1"><path d="m58.8 22.105a3.171 3.171 0 0 0 -3.17-3.17h-36.245a3.18 3.18 0 0 0 -3.18 3.17v26.38h42.595zm-3 23.13a.755.755 0 0 1 -.75.75h-35.095a.755.755 0 0 1 -.75-.75v-22.55a.749.749 0 0 1 .75-.75h35.09a.749.749 0 0 1 .75.75z"/><path d="m61.465 51.555-1.59-1.57h-44.75l-1.59 1.57a2.638 2.638 0 0 0 1.86 4.51h44.22a2.638 2.638 0 0 0 1.85-4.51zm-25.41 3.02h-2.69a.75.75 0 1 1 0-1.5h2.69a.75.75 0 0 1 0 1.5zm5.58 0h-2.69a.75.75 0 0 1 0-1.5h2.69a.75.75 0 1 1 0 1.5z"/></svg>